<?xml version="1.0" encoding="UTF-8" standalone="no"?>
<!DOCTYPE svg PUBLIC "-//W3C//DTD SVG 1.1//EN"
 "http://www.w3.org/Graphics/SVG/1.1/DTD/svg11.dtd">
<!-- Generated by graphviz version 2.47.0 (20210316.0004)
 -->
<!-- Title: dependencies Pages: 1 -->
<svg width="2340pt" height="306pt"
 viewBox="0.00 0.00 2340.00 306.00" xmlns="http://www.w3.org/2000/svg" xmlns:xlink="http://www.w3.org/1999/xlink">
<g id="graph0" class="graph" transform="scale(1 1) rotate(0) translate(4 302)">
<title>dependencies</title>
<polygon fill="white" stroke="transparent" points="-4,4 -4,-302 2336,-302 2336,4 -4,4"/>
<text text-anchor="start" x="1145.01" y="-42.4" font-family="Times-12" font-weight="bold" font-size="14.00">Legend</text>
<polygon fill="#ffffb3" stroke="transparent" points="932,-10 932,-30 952,-30 952,-10 932,-10"/>
<text text-anchor="start" x="955.63" y="-15.4" font-family="Times-12" font-size="14.00"> &#160;Declarations</text>
<polygon fill="#8dd3c7" stroke="transparent" points="1045,-10 1045,-30 1065,-30 1065,-10 1045,-10"/>
<text text-anchor="start" x="1068.73" y="-15.4" font-family="Times-12" font-size="14.00"> &#160;Module</text>
<polygon fill="#80b1d3" stroke="transparent" points="1131,-10 1131,-30 1151,-30 1151,-10 1131,-10"/>
<text text-anchor="start" x="1154.78" y="-15.4" font-family="Times-12" font-size="14.00"> &#160;Bootstrap</text>
<polygon fill="#fdb462" stroke="transparent" points="1228,-10 1228,-30 1248,-30 1248,-10 1228,-10"/>
<text text-anchor="start" x="1251.67" y="-15.4" font-family="Times-12" font-size="14.00"> &#160;Providers</text>
<polygon fill="#fb8072" stroke="transparent" points="1324,-10 1324,-30 1344,-30 1344,-10 1324,-10"/>
<text text-anchor="start" x="1347.73" y="-15.4" font-family="Times-12" font-size="14.00"> &#160;Exports</text>
<g id="clust1" class="cluster">
<title>cluster_AppModule</title>
<polygon fill="none" stroke="black" stroke-dasharray="1,5" points="702,-146 702,-290 2190,-290 2190,-146 702,-146"/>
</g>
<g id="clust3" class="cluster">
<title>cluster_AppModule_imports</title>
<polygon fill="none" stroke="black" points="710,-154 710,-282 2044,-282 2044,-154 710,-154"/>
</g>
<g id="clust6" class="cluster">
<title>cluster_AppModule_providers</title>
<polygon fill="none" stroke="black" points="2052,-154 2052,-206 2182,-206 2182,-154 2052,-154"/>
</g>
<g id="clust7" class="cluster">
<title>cluster_AuthModule</title>
<polygon fill="none" stroke="black" stroke-dasharray="1,5" points="8,-146 8,-214 694,-214 694,-146 8,-146"/>
</g>
<g id="clust10" class="cluster">
<title>cluster_AuthModule_exports</title>
<polygon fill="none" stroke="black" points="580,-154 580,-206 686,-206 686,-154 580,-154"/>
</g>
<g id="clust12" class="cluster">
<title>cluster_AuthModule_providers</title>
<polygon fill="none" stroke="black" points="16,-154 16,-206 572,-206 572,-154 16,-154"/>
</g>
<g id="clust13" class="cluster">
<title>cluster_CompaniesModule</title>
<polygon fill="none" stroke="black" stroke-dasharray="1,5" points="613,-70 613,-138 811,-138 811,-70 613,-70"/>
</g>
<g id="clust18" class="cluster">
<title>cluster_CompaniesModule_providers</title>
<polygon fill="none" stroke="black" points="621,-78 621,-130 803,-130 803,-78 621,-78"/>
</g>
<g id="clust19" class="cluster">
<title>cluster_DatabasesModule</title>
<polygon fill="none" stroke="black" stroke-dasharray="1,5" points="819,-70 819,-138 1151,-138 1151,-70 819,-70"/>
</g>
<g id="clust24" class="cluster">
<title>cluster_DatabasesModule_providers</title>
<polygon fill="none" stroke="black" points="827,-78 827,-130 1143,-130 1143,-78 827,-78"/>
</g>
<g id="clust25" class="cluster">
<title>cluster_FilesModule</title>
<polygon fill="none" stroke="black" stroke-dasharray="1,5" points="1159,-70 1159,-138 1309,-138 1309,-70 1159,-70"/>
</g>
<g id="clust30" class="cluster">
<title>cluster_FilesModule_providers</title>
<polygon fill="none" stroke="black" points="1167,-78 1167,-130 1301,-130 1301,-78 1167,-78"/>
</g>
<g id="clust37" class="cluster">
<title>cluster_JobsModule</title>
<polygon fill="none" stroke="black" stroke-dasharray="1,5" points="1317,-70 1317,-138 1463,-138 1463,-70 1317,-70"/>
</g>
<g id="clust42" class="cluster">
<title>cluster_JobsModule_providers</title>
<polygon fill="none" stroke="black" points="1325,-78 1325,-130 1455,-130 1455,-78 1325,-78"/>
</g>
<g id="clust43" class="cluster">
<title>cluster_MailModule</title>
<polygon fill="none" stroke="black" stroke-dasharray="1,5" points="1471,-70 1471,-138 1807,-138 1807,-70 1471,-70"/>
</g>
<g id="clust48" class="cluster">
<title>cluster_MailModule_providers</title>
<polygon fill="none" stroke="black" points="1479,-78 1479,-130 1799,-130 1799,-78 1479,-78"/>
</g>
<g id="clust49" class="cluster">
<title>cluster_PermissionsModule</title>
<polygon fill="none" stroke="black" stroke-dasharray="1,5" points="1815,-70 1815,-138 2021,-138 2021,-70 1815,-70"/>
</g>
<g id="clust54" class="cluster">
<title>cluster_PermissionsModule_providers</title>
<polygon fill="none" stroke="black" points="1823,-78 1823,-130 2013,-130 2013,-78 1823,-78"/>
</g>
<g id="clust55" class="cluster">
<title>cluster_ResumesModule</title>
<polygon fill="none" stroke="black" stroke-dasharray="1,5" points="2029,-70 2029,-138 2211,-138 2211,-70 2029,-70"/>
</g>
<g id="clust60" class="cluster">
<title>cluster_ResumesModule_providers</title>
<polygon fill="none" stroke="black" points="2037,-78 2037,-130 2203,-130 2203,-78 2037,-78"/>
</g>
<g id="clust73" class="cluster">
<title>cluster_UsersModule</title>
<polygon fill="none" stroke="black" stroke-dasharray="1,5" points="2198,-222 2198,-290 2324,-290 2324,-222 2198,-222"/>
</g>
<g id="clust76" class="cluster">
<title>cluster_UsersModule_exports</title>
<polygon fill="none" stroke="black" points="2206,-230 2206,-282 2316,-282 2316,-230 2206,-230"/>
</g>
<!-- AuthModule -->
<g id="node1" class="node">
<title>AuthModule</title>
<polygon fill="#8dd3c7" stroke="black" points="805.55,-274 802.55,-278 781.55,-278 778.55,-274 718.45,-274 718.45,-238 805.55,-238 805.55,-274"/>
<text text-anchor="middle" x="762" y="-251.8" font-family="Times,serif" font-size="14.00">AuthModule</text>
</g>
<!-- AppModule -->
<g id="node13" class="node">
<title>AppModule</title>
<polygon fill="#8dd3c7" stroke="black" points="2135.66,-274 2132.66,-278 2111.66,-278 2108.66,-274 2052.34,-274 2052.34,-238 2135.66,-238 2135.66,-274"/>
<text text-anchor="middle" x="2094" y="-251.8" font-family="Times,serif" font-size="14.00">AppModule</text>
</g>
<!-- AuthModule&#45;&gt;AppModule -->
<g id="edge1" class="edge">
<title>AuthModule&#45;&gt;AppModule</title>
<path fill="none" stroke="black" d="M805.56,-272C805.56,-272 2042.1,-272 2042.1,-272"/>
<polygon fill="black" stroke="black" points="2042.1,-275.5 2052.1,-272 2042.1,-268.5 2042.1,-275.5"/>
</g>
<!-- AuthService  -->
<g id="node15" class="node">
<title>AuthService </title>
<polygon fill="#fb8072" stroke="black" points="677.98,-198 588.02,-198 588.02,-162 677.98,-162 677.98,-198"/>
<text text-anchor="middle" x="633" y="-175.8" font-family="Times,serif" font-size="14.00">AuthService </text>
</g>
<!-- AuthModule&#45;&gt;AuthService  -->
<g id="edge15" class="edge">
<title>AuthModule&#45;&gt;AuthService </title>
<path fill="none" stroke="black" stroke-dasharray="5,2" d="M718.33,-244C680.9,-244 633,-244 633,-244 633,-244 633,-208.17 633,-208.17"/>
<polygon fill="black" stroke="black" points="636.5,-208.17 633,-198.17 629.5,-208.17 636.5,-208.17"/>
</g>
<!-- CompaniesModule -->
<g id="node2" class="node">
<title>CompaniesModule</title>
<polygon fill="#8dd3c7" stroke="black" points="840.04,-198 837.04,-202 816.04,-202 813.04,-198 717.96,-198 717.96,-162 840.04,-162 840.04,-198"/>
<text text-anchor="middle" x="779" y="-175.8" font-family="Times,serif" font-size="14.00">CompaniesModule</text>
</g>
<!-- CompaniesModule&#45;&gt;AppModule -->
<g id="edge2" class="edge">
<title>CompaniesModule&#45;&gt;AppModule</title>
<path fill="none" stroke="black" d="M823.02,-198.01C823.02,-224.02 823.02,-269 823.02,-269 823.02,-269 2042.07,-269 2042.07,-269"/>
<polygon fill="black" stroke="black" points="2042.07,-272.5 2052.07,-269 2042.07,-265.5 2042.07,-272.5"/>
</g>
<!-- DatabasesModule -->
<g id="node3" class="node">
<title>DatabasesModule</title>
<polygon fill="#8dd3c7" stroke="black" points="1193.29,-198 1190.29,-202 1169.29,-202 1166.29,-198 1076.71,-198 1076.71,-162 1193.29,-162 1193.29,-198"/>
<text text-anchor="middle" x="1135" y="-175.8" font-family="Times,serif" font-size="14.00">DatabasesModule</text>
</g>
<!-- DatabasesModule&#45;&gt;AppModule -->
<g id="edge3" class="edge">
<title>DatabasesModule&#45;&gt;AppModule</title>
<path fill="none" stroke="black" d="M1135,-198.09C1135,-221.13 1135,-258 1135,-258 1135,-258 2042.18,-258 2042.18,-258"/>
<polygon fill="black" stroke="black" points="2042.18,-261.5 2052.18,-258 2042.18,-254.5 2042.18,-261.5"/>
</g>
<!-- FilesModule -->
<g id="node4" class="node">
<title>FilesModule</title>
<polygon fill="#8dd3c7" stroke="black" points="1298.27,-198 1295.27,-202 1274.27,-202 1271.27,-198 1211.73,-198 1211.73,-162 1298.27,-162 1298.27,-198"/>
<text text-anchor="middle" x="1255" y="-175.8" font-family="Times,serif" font-size="14.00">FilesModule</text>
</g>
<!-- FilesModule&#45;&gt;AppModule -->
<g id="edge4" class="edge">
<title>FilesModule&#45;&gt;AppModule</title>
<path fill="none" stroke="black" d="M1255,-198.16C1255,-220.35 1255,-255 1255,-255 1255,-255 2042.11,-255 2042.11,-255"/>
<polygon fill="black" stroke="black" points="2042.11,-258.5 2052.11,-255 2042.11,-251.5 2042.11,-258.5"/>
</g>
<!-- HealthModule -->
<g id="node5" class="node">
<title>HealthModule</title>
<polygon fill="#8dd3c7" stroke="black" points="1619.37,-198 1616.37,-202 1595.37,-202 1592.37,-198 1522.63,-198 1522.63,-162 1619.37,-162 1619.37,-198"/>
<text text-anchor="middle" x="1571" y="-175.8" font-family="Times,serif" font-size="14.00">HealthModule</text>
</g>
<!-- HealthModule&#45;&gt;AppModule -->
<g id="edge5" class="edge">
<title>HealthModule&#45;&gt;AppModule</title>
<path fill="none" stroke="black" d="M1571,-198.31C1571,-218.15 1571,-247 1571,-247 1571,-247 2042.08,-247 2042.08,-247"/>
<polygon fill="black" stroke="black" points="2042.08,-250.5 2052.08,-247 2042.08,-243.5 2042.08,-250.5"/>
</g>
<!-- JobsModule -->
<g id="node6" class="node">
<title>JobsModule</title>
<polygon fill="#8dd3c7" stroke="black" points="1401.44,-198 1398.44,-202 1377.44,-202 1374.44,-198 1316.56,-198 1316.56,-162 1401.44,-162 1401.44,-198"/>
<text text-anchor="middle" x="1359" y="-175.8" font-family="Times,serif" font-size="14.00">JobsModule</text>
</g>
<!-- JobsModule&#45;&gt;AppModule -->
<g id="edge6" class="edge">
<title>JobsModule&#45;&gt;AppModule</title>
<path fill="none" stroke="black" d="M1359,-198.17C1359,-219.5 1359,-252 1359,-252 1359,-252 2042.11,-252 2042.11,-252"/>
<polygon fill="black" stroke="black" points="2042.11,-255.5 2052.11,-252 2042.11,-248.5 2042.11,-255.5"/>
</g>
<!-- MailModule -->
<g id="node7" class="node">
<title>MailModule</title>
<polygon fill="#8dd3c7" stroke="black" points="1504.99,-198 1501.99,-202 1480.99,-202 1477.99,-198 1419.01,-198 1419.01,-162 1504.99,-162 1504.99,-198"/>
<text text-anchor="middle" x="1462" y="-175.8" font-family="Times,serif" font-size="14.00">MailModule</text>
</g>
<!-- MailModule&#45;&gt;AppModule -->
<g id="edge7" class="edge">
<title>MailModule&#45;&gt;AppModule</title>
<path fill="none" stroke="black" d="M1462,-198.03C1462,-218.77 1462,-250 1462,-250 1462,-250 2042.04,-250 2042.04,-250"/>
<polygon fill="black" stroke="black" points="2042.04,-253.5 2052.04,-250 2042.04,-246.5 2042.04,-253.5"/>
</g>
<!-- PermissionsModule -->
<g id="node8" class="node">
<title>PermissionsModule</title>
<polygon fill="#8dd3c7" stroke="black" points="1907.71,-198 1904.71,-202 1883.71,-202 1880.71,-198 1780.29,-198 1780.29,-162 1907.71,-162 1907.71,-198"/>
<text text-anchor="middle" x="1844" y="-175.8" font-family="Times,serif" font-size="14.00">PermissionsModule</text>
</g>
<!-- PermissionsModule&#45;&gt;AppModule -->
<g id="edge8" class="edge">
<title>PermissionsModule&#45;&gt;AppModule</title>
<path fill="none" stroke="black" d="M1844,-198.3C1844,-216.27 1844,-241 1844,-241 1844,-241 2042.16,-241 2042.16,-241"/>
<polygon fill="black" stroke="black" points="2042.16,-244.5 2052.16,-241 2042.16,-237.5 2042.16,-244.5"/>
</g>
<!-- ResumesModule -->
<g id="node9" class="node">
<title>ResumesModule</title>
<polygon fill="#8dd3c7" stroke="black" points="2036.1,-198 2033.1,-202 2012.1,-202 2009.1,-198 1925.9,-198 1925.9,-162 2036.1,-162 2036.1,-198"/>
<text text-anchor="middle" x="1981" y="-175.8" font-family="Times,serif" font-size="14.00">ResumesModule</text>
</g>
<!-- ResumesModule&#45;&gt;AppModule -->
<g id="edge9" class="edge">
<title>ResumesModule&#45;&gt;AppModule</title>
<path fill="none" stroke="black" d="M2036.1,-186C2047.58,-186 2056.28,-186 2056.28,-186 2056.28,-186 2056.28,-227.97 2056.28,-227.97"/>
<polygon fill="black" stroke="black" points="2052.78,-227.97 2056.28,-237.97 2059.78,-227.97 2052.78,-227.97"/>
</g>
<!-- RolesModule -->
<g id="node10" class="node">
<title>RolesModule</title>
<polygon fill="#8dd3c7" stroke="black" points="1058.94,-198 1055.94,-202 1034.94,-202 1031.94,-198 967.06,-198 967.06,-162 1058.94,-162 1058.94,-198"/>
<text text-anchor="middle" x="1013" y="-175.8" font-family="Times,serif" font-size="14.00">RolesModule</text>
</g>
<!-- RolesModule&#45;&gt;AppModule -->
<g id="edge10" class="edge">
<title>RolesModule&#45;&gt;AppModule</title>
<path fill="none" stroke="black" d="M1013,-198.38C1013,-222.28 1013,-261 1013,-261 1013,-261 2042.29,-261 2042.29,-261"/>
<polygon fill="black" stroke="black" points="2042.29,-264.5 2052.29,-261 2042.29,-257.5 2042.29,-264.5"/>
</g>
<!-- SubscribersModule -->
<g id="node11" class="node">
<title>SubscribersModule</title>
<polygon fill="#8dd3c7" stroke="black" points="1762.36,-198 1759.36,-202 1738.36,-202 1735.36,-198 1637.64,-198 1637.64,-162 1762.36,-162 1762.36,-198"/>
<text text-anchor="middle" x="1700" y="-175.8" font-family="Times,serif" font-size="14.00">SubscribersModule</text>
</g>
<!-- SubscribersModule&#45;&gt;AppModule -->
<g id="edge11" class="edge">
<title>SubscribersModule&#45;&gt;AppModule</title>
<path fill="none" stroke="black" d="M1700,-198.17C1700,-217.09 1700,-244 1700,-244 1700,-244 2042.21,-244 2042.21,-244"/>
<polygon fill="black" stroke="black" points="2042.21,-247.5 2052.21,-244 2042.21,-240.5 2042.21,-247.5"/>
</g>
<!-- UsersModule -->
<g id="node12" class="node">
<title>UsersModule</title>
<polygon fill="#8dd3c7" stroke="black" points="949.92,-198 946.92,-202 925.92,-202 922.92,-198 858.08,-198 858.08,-162 949.92,-162 949.92,-198"/>
<text text-anchor="middle" x="904" y="-175.8" font-family="Times,serif" font-size="14.00">UsersModule</text>
</g>
<!-- UsersModule&#45;&gt;AuthModule -->
<g id="edge14" class="edge">
<title>UsersModule&#45;&gt;AuthModule</title>
<path fill="none" stroke="black" d="M904,-198.24C904,-223.48 904,-266 904,-266 904,-266 815.76,-266 815.76,-266"/>
<polygon fill="black" stroke="black" points="815.76,-262.5 805.76,-266 815.76,-269.5 815.76,-262.5"/>
</g>
<!-- UsersModule&#45;&gt;AppModule -->
<g id="edge12" class="edge">
<title>UsersModule&#45;&gt;AppModule</title>
<path fill="none" stroke="black" d="M926.86,-198.01C926.86,-222.42 926.86,-263 926.86,-263 926.86,-263 2042.12,-263 2042.12,-263"/>
<polygon fill="black" stroke="black" points="2042.12,-266.5 2052.12,-263 2042.12,-259.5 2042.12,-266.5"/>
</g>
<!-- UsersService  -->
<g id="node29" class="node">
<title>UsersService </title>
<polygon fill="#fb8072" stroke="black" points="2307.85,-274 2214.15,-274 2214.15,-238 2307.85,-238 2307.85,-274"/>
<text text-anchor="middle" x="2261" y="-251.8" font-family="Times,serif" font-size="14.00">UsersService </text>
</g>
<!-- UsersModule&#45;&gt;UsersService  -->
<g id="edge32" class="edge">
<title>UsersModule&#45;&gt;UsersService </title>
<path fill="none" stroke="black" stroke-dasharray="5,2" d="M881.14,-198.11C881.14,-207.9 881.14,-218 881.14,-218 881.14,-218 2261,-218 2261,-218 2261,-218 2261,-227.89 2261,-227.89"/>
<polygon fill="black" stroke="black" points="2257.5,-227.89 2261,-237.89 2264.5,-227.89 2257.5,-227.89"/>
</g>
<!-- AppService -->
<g id="node14" class="node">
<title>AppService</title>
<ellipse fill="#fdb462" stroke="black" cx="2117" cy="-180" rx="56.74" ry="18"/>
<text text-anchor="middle" x="2117" y="-175.8" font-family="Times,serif" font-size="14.00">AppService</text>
</g>
<!-- AppService&#45;&gt;AppModule -->
<g id="edge13" class="edge">
<title>AppService&#45;&gt;AppModule</title>
<path fill="none" stroke="black" d="M2098.1,-197.25C2098.1,-197.25 2098.1,-227.76 2098.1,-227.76"/>
<polygon fill="black" stroke="black" points="2094.6,-227.76 2098.1,-237.76 2101.6,-227.76 2094.6,-227.76"/>
</g>
<!-- AuthService -->
<g id="node16" class="node">
<title>AuthService</title>
<ellipse fill="#fdb462" stroke="black" cx="505" cy="-180" rx="59.11" ry="18"/>
<text text-anchor="middle" x="505" y="-175.8" font-family="Times,serif" font-size="14.00">AuthService</text>
</g>
<!-- AuthService&#45;&gt;AuthModule -->
<g id="edge16" class="edge">
<title>AuthService&#45;&gt;AuthModule</title>
<path fill="none" stroke="black" d="M505,-198.03C505,-218.77 505,-250 505,-250 505,-250 708.4,-250 708.4,-250"/>
<polygon fill="black" stroke="black" points="708.4,-253.5 718.4,-250 708.4,-246.5 708.4,-253.5"/>
</g>
<!-- JwtStrategy -->
<g id="node17" class="node">
<title>JwtStrategy</title>
<ellipse fill="#fdb462" stroke="black" cx="371" cy="-180" rx="56.76" ry="18"/>
<text text-anchor="middle" x="371" y="-175.8" font-family="Times,serif" font-size="14.00">JwtStrategy</text>
</g>
<!-- JwtStrategy&#45;&gt;AuthModule -->
<g id="edge17" class="edge">
<title>JwtStrategy&#45;&gt;AuthModule</title>
<path fill="none" stroke="black" d="M371,-198.01C371,-220.49 371,-256 371,-256 371,-256 708.29,-256 708.29,-256"/>
<polygon fill="black" stroke="black" points="708.29,-259.5 718.29,-256 708.29,-252.5 708.29,-259.5"/>
</g>
<!-- LocalStrategy -->
<g id="node18" class="node">
<title>LocalStrategy</title>
<ellipse fill="#fdb462" stroke="black" cx="231" cy="-180" rx="65.41" ry="18"/>
<text text-anchor="middle" x="231" y="-175.8" font-family="Times,serif" font-size="14.00">LocalStrategy</text>
</g>
<!-- LocalStrategy&#45;&gt;AuthModule -->
<g id="edge18" class="edge">
<title>LocalStrategy&#45;&gt;AuthModule</title>
<path fill="none" stroke="black" d="M231,-198.2C231,-222.36 231,-262 231,-262 231,-262 708.09,-262 708.09,-262"/>
<polygon fill="black" stroke="black" points="708.09,-265.5 718.09,-262 708.09,-258.5 708.09,-265.5"/>
</g>
<!-- RolesService -->
<g id="node19" class="node">
<title>RolesService</title>
<ellipse fill="#fdb462" stroke="black" cx="86" cy="-180" rx="61.97" ry="18"/>
<text text-anchor="middle" x="86" y="-175.8" font-family="Times,serif" font-size="14.00">RolesService</text>
</g>
<!-- RolesService&#45;&gt;AuthModule -->
<g id="edge19" class="edge">
<title>RolesService&#45;&gt;AuthModule</title>
<path fill="none" stroke="black" d="M86,-198.23C86,-224.01 86,-268 86,-268 86,-268 708.43,-268 708.43,-268"/>
<polygon fill="black" stroke="black" points="708.43,-271.5 718.43,-268 708.43,-264.5 708.43,-271.5"/>
</g>
<!-- RolesService&#45;&gt;RolesModule -->
<g id="edge30" class="edge">
<title>RolesService&#45;&gt;RolesModule</title>
<path fill="none" stroke="black" d="M86,-161.79C86,-156.45 86,-152 86,-152 86,-152 972.07,-152 972.07,-152 972.07,-152 972.07,-152.98 972.07,-152.98"/>
<polygon fill="black" stroke="black" points="968.57,-151.79 972.07,-161.79 975.57,-151.79 968.57,-151.79"/>
</g>
<!-- CompaniesService -->
<g id="node20" class="node">
<title>CompaniesService</title>
<ellipse fill="#fdb462" stroke="black" cx="712" cy="-104" rx="83.38" ry="18"/>
<text text-anchor="middle" x="712" y="-99.8" font-family="Times,serif" font-size="14.00">CompaniesService</text>
</g>
<!-- CompaniesService&#45;&gt;CompaniesModule -->
<g id="edge20" class="edge">
<title>CompaniesService&#45;&gt;CompaniesModule</title>
<path fill="none" stroke="black" d="M756.59,-119.38C756.59,-119.38 756.59,-151.97 756.59,-151.97"/>
<polygon fill="black" stroke="black" points="753.09,-151.97 756.59,-161.97 760.09,-151.97 753.09,-151.97"/>
</g>
<!-- DatabasesService -->
<g id="node21" class="node">
<title>DatabasesService</title>
<ellipse fill="#fdb462" stroke="black" cx="1056" cy="-104" rx="79.27" ry="18"/>
<text text-anchor="middle" x="1056" y="-99.8" font-family="Times,serif" font-size="14.00">DatabasesService</text>
</g>
<!-- DatabasesService&#45;&gt;DatabasesModule -->
<g id="edge21" class="edge">
<title>DatabasesService&#45;&gt;DatabasesModule</title>
<path fill="none" stroke="black" d="M1115.71,-115.88C1115.71,-115.88 1115.71,-151.99 1115.71,-151.99"/>
<polygon fill="black" stroke="black" points="1112.21,-151.99 1115.71,-161.99 1119.21,-151.99 1112.21,-151.99"/>
</g>
<!-- UsersService -->
<g id="node22" class="node">
<title>UsersService</title>
<ellipse fill="#fdb462" stroke="black" cx="897" cy="-104" rx="61.95" ry="18"/>
<text text-anchor="middle" x="897" y="-99.8" font-family="Times,serif" font-size="14.00">UsersService</text>
</g>
<!-- UsersService&#45;&gt;DatabasesModule -->
<g id="edge22" class="edge">
<title>UsersService&#45;&gt;DatabasesModule</title>
<path fill="none" stroke="black" d="M954.34,-110.97C954.34,-121.94 954.34,-142 954.34,-142 954.34,-142 1096.28,-142 1096.28,-142 1096.28,-142 1096.28,-151.89 1096.28,-151.89"/>
<polygon fill="black" stroke="black" points="1092.78,-151.89 1096.28,-161.89 1099.78,-151.89 1092.78,-151.89"/>
</g>
<!-- UsersService&#45;&gt;UsersModule -->
<g id="edge33" class="edge">
<title>UsersService&#45;&gt;UsersModule</title>
<path fill="none" stroke="black" d="M904,-122.01C904,-122.01 904,-151.85 904,-151.85"/>
<polygon fill="black" stroke="black" points="900.5,-151.85 904,-161.85 907.5,-151.85 900.5,-151.85"/>
</g>
<!-- FilesService -->
<g id="node23" class="node">
<title>FilesService</title>
<ellipse fill="#fdb462" stroke="black" cx="1234" cy="-104" rx="58.54" ry="18"/>
<text text-anchor="middle" x="1234" y="-99.8" font-family="Times,serif" font-size="14.00">FilesService</text>
</g>
<!-- FilesService&#45;&gt;FilesModule -->
<g id="edge23" class="edge">
<title>FilesService&#45;&gt;FilesModule</title>
<path fill="none" stroke="black" d="M1252.19,-121.25C1252.19,-121.25 1252.19,-151.76 1252.19,-151.76"/>
<polygon fill="black" stroke="black" points="1248.69,-151.76 1252.19,-161.76 1255.69,-151.76 1248.69,-151.76"/>
</g>
<!-- JobsService -->
<g id="node24" class="node">
<title>JobsService</title>
<ellipse fill="#fdb462" stroke="black" cx="1390" cy="-104" rx="57.32" ry="18"/>
<text text-anchor="middle" x="1390" y="-99.8" font-family="Times,serif" font-size="14.00">JobsService</text>
</g>
<!-- JobsService&#45;&gt;JobsModule -->
<g id="edge24" class="edge">
<title>JobsService&#45;&gt;JobsModule</title>
<path fill="none" stroke="black" d="M1367.03,-120.49C1367.03,-120.49 1367.03,-151.95 1367.03,-151.95"/>
<polygon fill="black" stroke="black" points="1363.53,-151.95 1367.03,-161.95 1370.53,-151.95 1363.53,-151.95"/>
</g>
<!-- JobsService&#45;&gt;MailModule -->
<g id="edge25" class="edge">
<title>JobsService&#45;&gt;MailModule</title>
<path fill="none" stroke="black" d="M1433.08,-115.88C1433.08,-115.88 1433.08,-151.99 1433.08,-151.99"/>
<polygon fill="black" stroke="black" points="1429.58,-151.99 1433.08,-161.99 1436.58,-151.99 1429.58,-151.99"/>
</g>
<!-- MailService -->
<g id="node25" class="node">
<title>MailService</title>
<ellipse fill="#fdb462" stroke="black" cx="1545" cy="-104" rx="58.46" ry="18"/>
<text text-anchor="middle" x="1545" y="-99.8" font-family="Times,serif" font-size="14.00">MailService</text>
</g>
<!-- MailService&#45;&gt;MailModule -->
<g id="edge26" class="edge">
<title>MailService&#45;&gt;MailModule</title>
<path fill="none" stroke="black" d="M1492.85,-112.13C1492.85,-112.13 1492.85,-151.88 1492.85,-151.88"/>
<polygon fill="black" stroke="black" points="1489.35,-151.88 1492.85,-161.88 1496.35,-151.88 1489.35,-151.88"/>
</g>
<!-- SubscribersService -->
<g id="node26" class="node">
<title>SubscribersService</title>
<ellipse fill="#fdb462" stroke="black" cx="1706" cy="-104" rx="85.09" ry="18"/>
<text text-anchor="middle" x="1706" y="-99.8" font-family="Times,serif" font-size="14.00">SubscribersService</text>
</g>
<!-- SubscribersService&#45;&gt;MailModule -->
<g id="edge27" class="edge">
<title>SubscribersService&#45;&gt;MailModule</title>
<path fill="none" stroke="black" d="M1629.26,-111.95C1629.26,-120.23 1629.26,-132 1629.26,-132 1629.26,-132 1498.92,-132 1498.92,-132 1498.92,-132 1498.92,-151.85 1498.92,-151.85"/>
<polygon fill="black" stroke="black" points="1495.42,-151.85 1498.92,-161.85 1502.42,-151.85 1495.42,-151.85"/>
</g>
<!-- SubscribersService&#45;&gt;SubscribersModule -->
<g id="edge31" class="edge">
<title>SubscribersService&#45;&gt;SubscribersModule</title>
<path fill="none" stroke="black" d="M1700,-122.01C1700,-122.01 1700,-151.85 1700,-151.85"/>
<polygon fill="black" stroke="black" points="1696.5,-151.85 1700,-161.85 1703.5,-151.85 1696.5,-151.85"/>
</g>
<!-- PermissionsService -->
<g id="node27" class="node">
<title>PermissionsService</title>
<ellipse fill="#fdb462" stroke="black" cx="1918" cy="-104" rx="86.83" ry="18"/>
<text text-anchor="middle" x="1918" y="-99.8" font-family="Times,serif" font-size="14.00">PermissionsService</text>
</g>
<!-- PermissionsService&#45;&gt;PermissionsModule -->
<g id="edge28" class="edge">
<title>PermissionsService&#45;&gt;PermissionsModule</title>
<path fill="none" stroke="black" d="M1869.47,-119.02C1869.47,-119.02 1869.47,-151.8 1869.47,-151.8"/>
<polygon fill="black" stroke="black" points="1865.97,-151.8 1869.47,-161.8 1872.97,-151.8 1865.97,-151.8"/>
</g>
<!-- ResumesService -->
<g id="node28" class="node">
<title>ResumesService</title>
<ellipse fill="#fdb462" stroke="black" cx="2120" cy="-104" rx="74.71" ry="18"/>
<text text-anchor="middle" x="2120" y="-99.8" font-family="Times,serif" font-size="14.00">ResumesService</text>
</g>
<!-- ResumesService&#45;&gt;ResumesModule -->
<g id="edge29" class="edge">
<title>ResumesService&#45;&gt;ResumesModule</title>
<path fill="none" stroke="black" d="M2048.66,-109.49C2048.66,-125.99 2048.66,-174 2048.66,-174 2048.66,-174 2046.25,-174 2046.25,-174"/>
<polygon fill="black" stroke="black" points="2046.25,-170.5 2036.25,-174 2046.25,-177.5 2046.25,-170.5"/>
</g>
</g>
</svg>
