<?xml version="1.0" encoding="UTF-8" standalone="no"?>
<!DOCTYPE svg PUBLIC "-//W3C//DTD SVG 1.1//EN"
 "http://www.w3.org/Graphics/SVG/1.1/DTD/svg11.dtd">
<!-- Generated by graphviz version 2.47.0 (20210316.0004)
 -->
<!-- Title: dependencies Pages: 1 -->
<svg width="1760pt" height="211pt"
 viewBox="0.00 0.00 1760.00 211.00" xmlns="http://www.w3.org/2000/svg" xmlns:xlink="http://www.w3.org/1999/xlink">
<g id="graph0" class="graph" transform="scale(1 1) rotate(0) translate(4 207)">
<title>dependencies</title>
<polygon fill="white" stroke="transparent" points="-4,4 -4,-207 1756,-207 1756,4 -4,4"/>
<text text-anchor="start" x="855.01" y="-42.4" font-family="Times-12" font-weight="bold" font-size="14.00">Legend</text>
<polygon fill="#ffffb3" stroke="transparent" points="642,-10 642,-30 662,-30 662,-10 642,-10"/>
<text text-anchor="start" x="665.63" y="-15.4" font-family="Times-12" font-size="14.00"> &#160;Declarations</text>
<polygon fill="#8dd3c7" stroke="transparent" points="755,-10 755,-30 775,-30 775,-10 755,-10"/>
<text text-anchor="start" x="778.73" y="-15.4" font-family="Times-12" font-size="14.00"> &#160;Module</text>
<polygon fill="#80b1d3" stroke="transparent" points="841,-10 841,-30 861,-30 861,-10 841,-10"/>
<text text-anchor="start" x="864.78" y="-15.4" font-family="Times-12" font-size="14.00"> &#160;Bootstrap</text>
<polygon fill="#fdb462" stroke="transparent" points="938,-10 938,-30 958,-30 958,-10 938,-10"/>
<text text-anchor="start" x="961.67" y="-15.4" font-family="Times-12" font-size="14.00"> &#160;Providers</text>
<polygon fill="#fb8072" stroke="transparent" points="1034,-10 1034,-30 1054,-30 1054,-10 1034,-10"/>
<text text-anchor="start" x="1057.73" y="-15.4" font-family="Times-12" font-size="14.00"> &#160;Exports</text>
<g id="clust1" class="cluster">
<title>cluster_AppModule</title>
<polygon fill="none" stroke="black" stroke-dasharray="1,5" points="8,-70 8,-195 1744,-195 1744,-70 8,-70"/>
</g>
<g id="clust3" class="cluster">
<title>cluster_AppModule_imports</title>
<polygon fill="none" stroke="black" points="154,-78 154,-130 1736,-130 1736,-78 154,-78"/>
</g>
<g id="clust6" class="cluster">
<title>cluster_AppModule_providers</title>
<polygon fill="none" stroke="black" points="16,-78 16,-130 146,-130 146,-78 16,-78"/>
</g>
<!-- AuthModule -->
<g id="node1" class="node">
<title>AuthModule</title>
<polygon fill="#8dd3c7" stroke="black" points="1727.55,-122 1724.55,-126 1703.55,-126 1700.55,-122 1640.45,-122 1640.45,-86 1727.55,-86 1727.55,-122"/>
<text text-anchor="middle" x="1684" y="-99.8" font-family="Times,serif" font-size="14.00">AuthModule</text>
</g>
<!-- AppModule -->
<g id="node14" class="node">
<title>AppModule</title>
<polygon fill="#8dd3c7" stroke="black" points="933.66,-187 930.66,-191 909.66,-191 906.66,-187 850.34,-187 850.34,-151 933.66,-151 933.66,-187"/>
<text text-anchor="middle" x="892" y="-164.8" font-family="Times,serif" font-size="14.00">AppModule</text>
</g>
<!-- AuthModule&#45;&gt;AppModule -->
<g id="edge1" class="edge">
<title>AuthModule&#45;&gt;AppModule</title>
<path fill="none" stroke="black" d="M1684,-122.09C1684,-145.13 1684,-182 1684,-182 1684,-182 943.74,-182 943.74,-182"/>
<polygon fill="black" stroke="black" points="943.74,-178.5 933.74,-182 943.74,-185.5 943.74,-178.5"/>
</g>
<!-- CloudinaryModule -->
<g id="node2" class="node">
<title>CloudinaryModule</title>
<polygon fill="#8dd3c7" stroke="black" points="1622.04,-122 1619.04,-126 1598.04,-126 1595.04,-122 1499.96,-122 1499.96,-86 1622.04,-86 1622.04,-122"/>
<text text-anchor="middle" x="1561" y="-99.8" font-family="Times,serif" font-size="14.00">CloudinaryModule</text>
</g>
<!-- CloudinaryModule&#45;&gt;AppModule -->
<g id="edge2" class="edge">
<title>CloudinaryModule&#45;&gt;AppModule</title>
<path fill="none" stroke="black" d="M1561,-122.04C1561,-143.66 1561,-177 1561,-177 1561,-177 943.85,-177 943.85,-177"/>
<polygon fill="black" stroke="black" points="943.85,-173.5 933.85,-177 943.85,-180.5 943.85,-173.5"/>
</g>
<!-- CompaniesModule -->
<g id="node3" class="node">
<title>CompaniesModule</title>
<polygon fill="#8dd3c7" stroke="black" points="1481.04,-122 1478.04,-126 1457.04,-126 1454.04,-122 1358.96,-122 1358.96,-86 1481.04,-86 1481.04,-122"/>
<text text-anchor="middle" x="1420" y="-99.8" font-family="Times,serif" font-size="14.00">CompaniesModule</text>
</g>
<!-- CompaniesModule&#45;&gt;AppModule -->
<g id="edge3" class="edge">
<title>CompaniesModule&#45;&gt;AppModule</title>
<path fill="none" stroke="black" d="M1420,-122.22C1420,-142.37 1420,-172 1420,-172 1420,-172 943.87,-172 943.87,-172"/>
<polygon fill="black" stroke="black" points="943.87,-168.5 933.87,-172 943.87,-175.5 943.87,-168.5"/>
</g>
<!-- DatabasesModule -->
<g id="node4" class="node">
<title>DatabasesModule</title>
<polygon fill="#8dd3c7" stroke="black" points="1341.29,-122 1338.29,-126 1317.29,-126 1314.29,-122 1224.71,-122 1224.71,-86 1341.29,-86 1341.29,-122"/>
<text text-anchor="middle" x="1283" y="-99.8" font-family="Times,serif" font-size="14.00">DatabasesModule</text>
</g>
<!-- DatabasesModule&#45;&gt;AppModule -->
<g id="edge4" class="edge">
<title>DatabasesModule&#45;&gt;AppModule</title>
<path fill="none" stroke="black" d="M1283,-122.22C1283,-140.83 1283,-167 1283,-167 1283,-167 943.84,-167 943.84,-167"/>
<polygon fill="black" stroke="black" points="943.84,-163.5 933.84,-167 943.84,-170.5 943.84,-163.5"/>
</g>
<!-- FilesModule -->
<g id="node5" class="node">
<title>FilesModule</title>
<polygon fill="#8dd3c7" stroke="black" points="1206.27,-122 1203.27,-126 1182.27,-126 1179.27,-122 1119.73,-122 1119.73,-86 1206.27,-86 1206.27,-122"/>
<text text-anchor="middle" x="1163" y="-99.8" font-family="Times,serif" font-size="14.00">FilesModule</text>
</g>
<!-- FilesModule&#45;&gt;AppModule -->
<g id="edge5" class="edge">
<title>FilesModule&#45;&gt;AppModule</title>
<path fill="none" stroke="black" d="M1163,-122.03C1163,-139.06 1163,-162 1163,-162 1163,-162 943.75,-162 943.75,-162"/>
<polygon fill="black" stroke="black" points="943.75,-158.5 933.75,-162 943.75,-165.5 943.75,-158.5"/>
</g>
<!-- HealthModule -->
<g id="node6" class="node">
<title>HealthModule</title>
<polygon fill="#8dd3c7" stroke="black" points="1101.37,-122 1098.37,-126 1077.37,-126 1074.37,-122 1004.63,-122 1004.63,-86 1101.37,-86 1101.37,-122"/>
<text text-anchor="middle" x="1053" y="-99.8" font-family="Times,serif" font-size="14.00">HealthModule</text>
</g>
<!-- HealthModule&#45;&gt;AppModule -->
<g id="edge6" class="edge">
<title>HealthModule&#45;&gt;AppModule</title>
<path fill="none" stroke="black" d="M1053,-122.24C1053,-137.57 1053,-157 1053,-157 1053,-157 943.88,-157 943.88,-157"/>
<polygon fill="black" stroke="black" points="943.88,-153.5 933.88,-157 943.88,-160.5 943.88,-153.5"/>
</g>
<!-- JobsModule -->
<g id="node7" class="node">
<title>JobsModule</title>
<polygon fill="#8dd3c7" stroke="black" points="986.44,-122 983.44,-126 962.44,-126 959.44,-122 901.56,-122 901.56,-86 986.44,-86 986.44,-122"/>
<text text-anchor="middle" x="944" y="-99.8" font-family="Times,serif" font-size="14.00">JobsModule</text>
</g>
<!-- JobsModule&#45;&gt;AppModule -->
<g id="edge7" class="edge">
<title>JobsModule&#45;&gt;AppModule</title>
<path fill="none" stroke="black" d="M917.8,-122.11C917.8,-122.11 917.8,-140.99 917.8,-140.99"/>
<polygon fill="black" stroke="black" points="914.3,-140.99 917.8,-150.99 921.3,-140.99 914.3,-140.99"/>
</g>
<!-- MailModule -->
<g id="node8" class="node">
<title>MailModule</title>
<polygon fill="#8dd3c7" stroke="black" points="883.99,-122 880.99,-126 859.99,-126 856.99,-122 798.01,-122 798.01,-86 883.99,-86 883.99,-122"/>
<text text-anchor="middle" x="841" y="-99.8" font-family="Times,serif" font-size="14.00">MailModule</text>
</g>
<!-- MailModule&#45;&gt;AppModule -->
<g id="edge8" class="edge">
<title>MailModule&#45;&gt;AppModule</title>
<path fill="none" stroke="black" d="M867.08,-122.11C867.08,-122.11 867.08,-140.99 867.08,-140.99"/>
<polygon fill="black" stroke="black" points="863.58,-140.99 867.08,-150.99 870.58,-140.99 863.58,-140.99"/>
</g>
<!-- PermissionsModule -->
<g id="node9" class="node">
<title>PermissionsModule</title>
<polygon fill="#8dd3c7" stroke="black" points="779.71,-122 776.71,-126 755.71,-126 752.71,-122 652.29,-122 652.29,-86 779.71,-86 779.71,-122"/>
<text text-anchor="middle" x="716" y="-99.8" font-family="Times,serif" font-size="14.00">PermissionsModule</text>
</g>
<!-- PermissionsModule&#45;&gt;AppModule -->
<g id="edge9" class="edge">
<title>PermissionsModule&#45;&gt;AppModule</title>
<path fill="none" stroke="black" d="M716,-122.24C716,-137.57 716,-157 716,-157 716,-157 840.29,-157 840.29,-157"/>
<polygon fill="black" stroke="black" points="840.29,-160.5 850.29,-157 840.29,-153.5 840.29,-160.5"/>
</g>
<!-- ResumesModule -->
<g id="node10" class="node">
<title>ResumesModule</title>
<polygon fill="#8dd3c7" stroke="black" points="634.1,-122 631.1,-126 610.1,-126 607.1,-122 523.9,-122 523.9,-86 634.1,-86 634.1,-122"/>
<text text-anchor="middle" x="579" y="-99.8" font-family="Times,serif" font-size="14.00">ResumesModule</text>
</g>
<!-- ResumesModule&#45;&gt;AppModule -->
<g id="edge10" class="edge">
<title>ResumesModule&#45;&gt;AppModule</title>
<path fill="none" stroke="black" d="M579,-122.03C579,-139.06 579,-162 579,-162 579,-162 840.11,-162 840.11,-162"/>
<polygon fill="black" stroke="black" points="840.11,-165.5 850.11,-162 840.11,-158.5 840.11,-165.5"/>
</g>
<!-- RolesModule -->
<g id="node11" class="node">
<title>RolesModule</title>
<polygon fill="#8dd3c7" stroke="black" points="505.94,-122 502.94,-126 481.94,-126 478.94,-122 414.06,-122 414.06,-86 505.94,-86 505.94,-122"/>
<text text-anchor="middle" x="460" y="-99.8" font-family="Times,serif" font-size="14.00">RolesModule</text>
</g>
<!-- RolesModule&#45;&gt;AppModule -->
<g id="edge11" class="edge">
<title>RolesModule&#45;&gt;AppModule</title>
<path fill="none" stroke="black" d="M460,-122.22C460,-140.83 460,-167 460,-167 460,-167 840.19,-167 840.19,-167"/>
<polygon fill="black" stroke="black" points="840.19,-170.5 850.19,-167 840.19,-163.5 840.19,-170.5"/>
</g>
<!-- SubscribersModule -->
<g id="node12" class="node">
<title>SubscribersModule</title>
<polygon fill="#8dd3c7" stroke="black" points="396.36,-122 393.36,-126 372.36,-126 369.36,-122 271.64,-122 271.64,-86 396.36,-86 396.36,-122"/>
<text text-anchor="middle" x="334" y="-99.8" font-family="Times,serif" font-size="14.00">SubscribersModule</text>
</g>
<!-- SubscribersModule&#45;&gt;AppModule -->
<g id="edge12" class="edge">
<title>SubscribersModule&#45;&gt;AppModule</title>
<path fill="none" stroke="black" d="M334,-122.22C334,-142.37 334,-172 334,-172 334,-172 840.06,-172 840.06,-172"/>
<polygon fill="black" stroke="black" points="840.06,-175.5 850.06,-172 840.06,-168.5 840.06,-175.5"/>
</g>
<!-- UsersModule -->
<g id="node13" class="node">
<title>UsersModule</title>
<polygon fill="#8dd3c7" stroke="black" points="253.92,-122 250.92,-126 229.92,-126 226.92,-122 162.08,-122 162.08,-86 253.92,-86 253.92,-122"/>
<text text-anchor="middle" x="208" y="-99.8" font-family="Times,serif" font-size="14.00">UsersModule</text>
</g>
<!-- UsersModule&#45;&gt;AppModule -->
<g id="edge13" class="edge">
<title>UsersModule&#45;&gt;AppModule</title>
<path fill="none" stroke="black" d="M208,-122.04C208,-143.66 208,-177 208,-177 208,-177 840.24,-177 840.24,-177"/>
<polygon fill="black" stroke="black" points="840.24,-180.5 850.24,-177 840.24,-173.5 840.24,-180.5"/>
</g>
<!-- AppService -->
<g id="node15" class="node">
<title>AppService</title>
<ellipse fill="#fdb462" stroke="black" cx="81" cy="-104" rx="56.74" ry="18"/>
<text text-anchor="middle" x="81" y="-99.8" font-family="Times,serif" font-size="14.00">AppService</text>
</g>
<!-- AppService&#45;&gt;AppModule -->
<g id="edge14" class="edge">
<title>AppService&#45;&gt;AppModule</title>
<path fill="none" stroke="black" d="M81,-122.09C81,-145.13 81,-182 81,-182 81,-182 840.1,-182 840.1,-182"/>
<polygon fill="black" stroke="black" points="840.1,-185.5 850.1,-182 840.1,-178.5 840.1,-185.5"/>
</g>
</g>
</svg>
