<?xml version="1.0" encoding="UTF-8" standalone="no"?>
<!DOCTYPE svg PUBLIC "-//W3C//DTD SVG 1.1//EN"
 "http://www.w3.org/Graphics/SVG/1.1/DTD/svg11.dtd">
<!-- Generated by graphviz version 2.47.0 (20210316.0004)
 -->
<!-- Title: dependencies Pages: 1 -->
<svg width="504pt" height="211pt"
 viewBox="0.00 0.00 504.00 211.00" xmlns="http://www.w3.org/2000/svg" xmlns:xlink="http://www.w3.org/1999/xlink">
<g id="graph0" class="graph" transform="scale(1 1) rotate(0) translate(4 207)">
<title>dependencies</title>
<polygon fill="white" stroke="transparent" points="-4,4 -4,-207 500,-207 500,4 -4,4"/>
<text text-anchor="start" x="227.01" y="-42.4" font-family="Times-12" font-weight="bold" font-size="14.00">Legend</text>
<polygon fill="#ffffb3" stroke="transparent" points="14,-10 14,-30 34,-30 34,-10 14,-10"/>
<text text-anchor="start" x="37.63" y="-15.4" font-family="Times-12" font-size="14.00"> &#160;Declarations</text>
<polygon fill="#8dd3c7" stroke="transparent" points="127,-10 127,-30 147,-30 147,-10 127,-10"/>
<text text-anchor="start" x="150.73" y="-15.4" font-family="Times-12" font-size="14.00"> &#160;Module</text>
<polygon fill="#80b1d3" stroke="transparent" points="213,-10 213,-30 233,-30 233,-10 213,-10"/>
<text text-anchor="start" x="236.78" y="-15.4" font-family="Times-12" font-size="14.00"> &#160;Bootstrap</text>
<polygon fill="#fdb462" stroke="transparent" points="310,-10 310,-30 330,-30 330,-10 310,-10"/>
<text text-anchor="start" x="333.67" y="-15.4" font-family="Times-12" font-size="14.00"> &#160;Providers</text>
<polygon fill="#fb8072" stroke="transparent" points="406,-10 406,-30 426,-30 426,-10 406,-10"/>
<text text-anchor="start" x="429.73" y="-15.4" font-family="Times-12" font-size="14.00"> &#160;Exports</text>
<g id="clust1" class="cluster">
<title>cluster_MailModule</title>
<polygon fill="none" stroke="black" stroke-dasharray="1,5" points="14,-70 14,-195 482,-195 482,-70 14,-70"/>
</g>
<g id="clust6" class="cluster">
<title>cluster_MailModule_providers</title>
<polygon fill="none" stroke="black" points="22,-78 22,-130 474,-130 474,-78 22,-78"/>
</g>
<!-- JobsService -->
<g id="node1" class="node">
<title>JobsService</title>
<ellipse fill="#fdb462" stroke="black" cx="409" cy="-104" rx="57.32" ry="18"/>
<text text-anchor="middle" x="409" y="-99.8" font-family="Times,serif" font-size="14.00">JobsService</text>
</g>
<!-- MailModule -->
<g id="node4" class="node">
<title>MailModule</title>
<polygon fill="#8dd3c7" stroke="black" points="318.99,-187 315.99,-191 294.99,-191 291.99,-187 233.01,-187 233.01,-151 318.99,-151 318.99,-187"/>
<text text-anchor="middle" x="276" y="-164.8" font-family="Times,serif" font-size="14.00">MailModule</text>
</g>
<!-- JobsService&#45;&gt;MailModule -->
<g id="edge1" class="edge">
<title>JobsService&#45;&gt;MailModule</title>
<path fill="none" stroke="black" d="M409,-122.11C409,-141.34 409,-169 409,-169 409,-169 329.18,-169 329.18,-169"/>
<polygon fill="black" stroke="black" points="329.18,-165.5 319.18,-169 329.18,-172.5 329.18,-165.5"/>
</g>
<!-- MailService -->
<g id="node2" class="node">
<title>MailService</title>
<ellipse fill="#fdb462" stroke="black" cx="276" cy="-104" rx="58.46" ry="18"/>
<text text-anchor="middle" x="276" y="-99.8" font-family="Times,serif" font-size="14.00">MailService</text>
</g>
<!-- MailService&#45;&gt;MailModule -->
<g id="edge2" class="edge">
<title>MailService&#45;&gt;MailModule</title>
<path fill="none" stroke="black" d="M276,-122.11C276,-122.11 276,-140.99 276,-140.99"/>
<polygon fill="black" stroke="black" points="272.5,-140.99 276,-150.99 279.5,-140.99 272.5,-140.99"/>
</g>
<!-- SubscribersService -->
<g id="node3" class="node">
<title>SubscribersService</title>
<ellipse fill="#fdb462" stroke="black" cx="115" cy="-104" rx="85.09" ry="18"/>
<text text-anchor="middle" x="115" y="-99.8" font-family="Times,serif" font-size="14.00">SubscribersService</text>
</g>
<!-- SubscribersService&#45;&gt;MailModule -->
<g id="edge3" class="edge">
<title>SubscribersService&#45;&gt;MailModule</title>
<path fill="none" stroke="black" d="M115,-122.11C115,-141.34 115,-169 115,-169 115,-169 222.85,-169 222.85,-169"/>
<polygon fill="black" stroke="black" points="222.85,-172.5 232.85,-169 222.85,-165.5 222.85,-172.5"/>
</g>
</g>
</svg>
